<svg width="262" height="270" viewBox="0 0 262 270" fill="none" xmlns="http://www.w3.org/2000/svg">
<g filter="url(#filter0_ii_2_88)">
<rect x="0.377869" width="260.73" height="260.73" rx="56.6803" fill="url(#paint0_linear_2_88)"/>
<rect x="0.377869" width="260.73" height="260.73" rx="56.6803" fill="url(#paint1_linear_2_88)" fill-opacity="0.2" style="mix-blend-mode:soft-light"/>
</g>
<g filter="url(#filter1_d_2_88)">
<mask id="mask0_2_88" style="mask-type:alpha" maskUnits="userSpaceOnUse" x="65" y="61" width="132" height="149">
<path d="M183.958 61.8451H77.5254C70.7429 61.8451 65.2447 67.3434 65.2447 74.1258V196.933C65.2447 203.716 70.7429 209.214 77.5254 209.214H183.958C190.741 209.214 196.239 203.716 196.239 196.933V74.1258C196.239 67.3434 190.741 61.8451 183.958 61.8451Z" fill="white"/>
</mask>
<g mask="url(#mask0_2_88)">
<g filter="url(#filter2_ii_2_88)">
<path d="M183.958 61.8451H77.5254C70.7429 61.8451 65.2447 67.3434 65.2447 74.1258V196.933C65.2447 203.716 70.7429 209.214 77.5254 209.214H183.958C190.741 209.214 196.239 203.716 196.239 196.933V74.1258C196.239 67.3434 190.741 61.8451 183.958 61.8451Z" fill="url(#paint2_linear_2_88)"/>
<path d="M183.958 61.8451H77.5254C70.7429 61.8451 65.2447 67.3434 65.2447 74.1258V196.933C65.2447 203.716 70.7429 209.214 77.5254 209.214H183.958C190.741 209.214 196.239 203.716 196.239 196.933V74.1258C196.239 67.3434 190.741 61.8451 183.958 61.8451Z" fill="url(#paint3_radial_2_88)" fill-opacity="0.8"/>
<path d="M183.958 61.8451H77.5254C70.7429 61.8451 65.2447 67.3434 65.2447 74.1258V196.933C65.2447 203.716 70.7429 209.214 77.5254 209.214H183.958C190.741 209.214 196.239 203.716 196.239 196.933V74.1258C196.239 67.3434 190.741 61.8451 183.958 61.8451Z" fill="url(#paint4_radial_2_88)" fill-opacity="0.8"/>
<path d="M183.958 61.8451H77.5254C70.7429 61.8451 65.2447 67.3434 65.2447 74.1258V196.933C65.2447 203.716 70.7429 209.214 77.5254 209.214H183.958C190.741 209.214 196.239 203.716 196.239 196.933V74.1258C196.239 67.3434 190.741 61.8451 183.958 61.8451Z" fill="url(#paint5_radial_2_88)" fill-opacity="0.8"/>
</g>
</g>
<g filter="url(#filter3_ddii_2_88)">
<path fill-rule="evenodd" clip-rule="evenodd" d="M143.021 41.3766C148.121 41.3766 152.495 44.4858 154.351 48.9122C154.513 49.2983 154.883 49.564 155.301 49.5638C162.084 49.5638 167.582 55.0621 167.582 61.8445C167.582 68.627 162.084 74.1253 155.301 74.1253H106.178C99.3959 74.1253 93.8976 68.627 93.8976 61.8445C93.8976 55.0621 99.3959 49.5638 106.178 49.5638C106.597 49.564 106.967 49.2983 107.129 48.9122C108.985 44.4858 113.359 41.3766 118.459 41.3766H143.021Z" fill="#FF5C7A"/>
</g>
<g filter="url(#filter4_dii_2_88)">
<path fill-rule="evenodd" clip-rule="evenodd" d="M104.689 131.932C101.492 128.734 101.492 123.551 104.689 120.353C107.886 117.156 113.07 117.156 116.267 120.353L127.044 131.13C127.487 131.573 128.205 131.573 128.647 131.13L145.213 114.564C148.411 111.367 153.595 111.367 156.792 114.564C159.989 117.761 159.989 122.945 156.792 126.143L133.635 149.299C130.583 152.351 125.721 152.49 122.505 149.716L122.057 149.299L104.689 131.932Z" fill="white"/>
</g>
</g>
<defs>
<filter id="filter0_ii_2_88" x="-1.65693" y="-2.0348" width="264.799" height="264.799" filterUnits="userSpaceOnUse" color-interpolation-filters="sRGB">
<feFlood flood-opacity="0" result="BackgroundImageFix"/>
<feBlend mode="normal" in="SourceGraphic" in2="BackgroundImageFix" result="shape"/>
<feColorMatrix in="SourceAlpha" type="matrix" values="0 0 0 0 0 0 0 0 0 0 0 0 0 0 0 0 0 0 127 0" result="hardAlpha"/>
<feOffset dx="2.0348" dy="2.0348"/>
<feGaussianBlur stdDeviation="1.0174"/>
<feComposite in2="hardAlpha" operator="arithmetic" k2="-1" k3="1"/>
<feColorMatrix type="matrix" values="0 0 0 0 1 0 0 0 0 1 0 0 0 0 1 0 0 0 0.2 0"/>
<feBlend mode="normal" in2="shape" result="effect1_innerShadow_2_88"/>
<feColorMatrix in="SourceAlpha" type="matrix" values="0 0 0 0 0 0 0 0 0 0 0 0 0 0 0 0 0 0 127 0" result="hardAlpha"/>
<feOffset dx="-2.0348" dy="-2.0348"/>
<feGaussianBlur stdDeviation="1.0174"/>
<feComposite in2="hardAlpha" operator="arithmetic" k2="-1" k3="1"/>
<feColorMatrix type="matrix" values="0 0 0 0 0 0 0 0 0 0 0 0 0 0 0 0 0 0 0.05 0"/>
<feBlend mode="normal" in2="effect1_innerShadow_2_88" result="effect2_innerShadow_2_88"/>
</filter>
<filter id="filter1_d_2_88" x="1.43051e-05" y="7.9352" width="261.485" height="261.485" filterUnits="userSpaceOnUse" color-interpolation-filters="sRGB">
<feFlood flood-opacity="0" result="BackgroundImageFix"/>
<feColorMatrix in="SourceAlpha" type="matrix" values="0 0 0 0 0 0 0 0 0 0 0 0 0 0 0 0 0 0 127 0" result="hardAlpha"/>
<feMorphology radius="2.26721" operator="dilate" in="SourceAlpha" result="effect1_dropShadow_2_88"/>
<feOffset dy="11.3361"/>
<feGaussianBlur stdDeviation="15.1148"/>
<feColorMatrix type="matrix" values="0 0 0 0 0.206916 0 0 0 0 0 0 0 0 0 0.795833 0 0 0 0.6 0"/>
<feBlend mode="normal" in2="BackgroundImageFix" result="effect1_dropShadow_2_88"/>
<feBlend mode="normal" in="SourceGraphic" in2="effect1_dropShadow_2_88" result="shape"/>
</filter>
<filter id="filter2_ii_2_88" x="52.1367" y="52.4135" width="144.103" height="156.8" filterUnits="userSpaceOnUse" color-interpolation-filters="sRGB">
<feFlood flood-opacity="0" result="BackgroundImageFix"/>
<feBlend mode="normal" in="SourceGraphic" in2="BackgroundImageFix" result="shape"/>
<feColorMatrix in="SourceAlpha" type="matrix" values="0 0 0 0 0 0 0 0 0 0 0 0 0 0 0 0 0 0 127 0" result="hardAlpha"/>
<feOffset dx="-13.108"/>
<feGaussianBlur stdDeviation="13.108"/>
<feComposite in2="hardAlpha" operator="arithmetic" k2="-1" k3="1"/>
<feColorMatrix type="matrix" values="0 0 0 0 0.80575 0 0 0 0 0.7375 0 0 0 0 1 0 0 0 0.3 0"/>
<feBlend mode="normal" in2="shape" result="effect1_innerShadow_2_88"/>
<feColorMatrix in="SourceAlpha" type="matrix" values="0 0 0 0 0 0 0 0 0 0 0 0 0 0 0 0 0 0 127 0" result="hardAlpha"/>
<feOffset dy="-9.43161"/>
<feGaussianBlur stdDeviation="6.28774"/>
<feComposite in2="hardAlpha" operator="arithmetic" k2="-1" k3="1"/>
<feColorMatrix type="matrix" values="0 0 0 0 0.1755 0 0 0 0 0 0 0 0 0 0.675 0 0 0 0.65 0"/>
<feBlend mode="normal" in2="effect1_innerShadow_2_88" result="effect2_innerShadow_2_88"/>
</filter>
<filter id="filter3_ddii_2_88" x="82.1081" y="34.3029" width="97.2634" height="56.3276" filterUnits="userSpaceOnUse" color-interpolation-filters="sRGB">
<feFlood flood-opacity="0" result="BackgroundImageFix"/>
<feColorMatrix in="SourceAlpha" type="matrix" values="0 0 0 0 0 0 0 0 0 0 0 0 0 0 0 0 0 0 127 0" result="hardAlpha"/>
<feOffset dy="4.7158"/>
<feGaussianBlur stdDeviation="5.89475"/>
<feColorMatrix type="matrix" values="0 0 0 0 0.295167 0 0 0 0 0 0 0 0 0 0.670833 0 0 0 0.75 0"/>
<feBlend mode="normal" in2="BackgroundImageFix" result="effect1_dropShadow_2_88"/>
<feColorMatrix in="SourceAlpha" type="matrix" values="0 0 0 0 0 0 0 0 0 0 0 0 0 0 0 0 0 0 127 0" result="hardAlpha"/>
<feOffset dy="1.17895"/>
<feGaussianBlur stdDeviation="0.785967"/>
<feColorMatrix type="matrix" values="0 0 0 0 0.237156 0 0 0 0 0.00444442 0 0 0 0 0.533333 0 0 0 0.25 0"/>
<feBlend mode="normal" in2="effect1_dropShadow_2_88" result="effect2_dropShadow_2_88"/>
<feBlend mode="normal" in="SourceGraphic" in2="effect2_dropShadow_2_88" result="shape"/>
<feColorMatrix in="SourceAlpha" type="matrix" values="0 0 0 0 0 0 0 0 0 0 0 0 0 0 0 0 0 0 127 0" result="hardAlpha"/>
<feOffset dy="-4.7158"/>
<feGaussianBlur stdDeviation="4.7158"/>
<feComposite in2="hardAlpha" operator="arithmetic" k2="-1" k3="1"/>
<feColorMatrix type="matrix" values="0 0 0 0 0.525 0 0 0 0 0 0 0 0 0 0.0629999 0 0 0 0.65 0"/>
<feBlend mode="normal" in2="shape" result="effect3_innerShadow_2_88"/>
<feColorMatrix in="SourceAlpha" type="matrix" values="0 0 0 0 0 0 0 0 0 0 0 0 0 0 0 0 0 0 127 0" result="hardAlpha"/>
<feOffset dy="-2.3579"/>
<feGaussianBlur stdDeviation="2.3579"/>
<feComposite in2="hardAlpha" operator="arithmetic" k2="-1" k3="1"/>
<feColorMatrix type="matrix" values="0 0 0 0 0.553333 0 0 0 0 0.441667 0 0 0 0 1 0 0 0 0.65 0"/>
<feBlend mode="normal" in2="effect3_innerShadow_2_88" result="effect4_innerShadow_2_88"/>
</filter>
<filter id="filter4_dii_2_88" x="78.7121" y="104.307" width="104.057" height="86.6891" filterUnits="userSpaceOnUse" color-interpolation-filters="sRGB">
<feFlood flood-opacity="0" result="BackgroundImageFix"/>
<feColorMatrix in="SourceAlpha" type="matrix" values="0 0 0 0 0 0 0 0 0 0 0 0 0 0 0 0 0 0 127 0" result="hardAlpha"/>
<feOffset dy="15.7193"/>
<feGaussianBlur stdDeviation="11.7895"/>
<feColorMatrix type="matrix" values="0 0 0 0 0.227561 0 0 0 0 0.00928819 0 0 0 0 0.445833 0 0 0 0.7 0"/>
<feBlend mode="normal" in2="BackgroundImageFix" result="effect1_dropShadow_2_88"/>
<feBlend mode="normal" in="SourceGraphic" in2="effect1_dropShadow_2_88" result="shape"/>
<feColorMatrix in="SourceAlpha" type="matrix" values="0 0 0 0 0 0 0 0 0 0 0 0 0 0 0 0 0 0 127 0" result="hardAlpha"/>
<feOffset dy="-6.28774"/>
<feGaussianBlur stdDeviation="3.92984"/>
<feComposite in2="hardAlpha" operator="arithmetic" k2="-1" k3="1"/>
<feColorMatrix type="matrix" values="0 0 0 0 0.32 0 0 0 0 0 0 0 0 0 1 0 0 0 0.5 0"/>
<feBlend mode="normal" in2="shape" result="effect2_innerShadow_2_88"/>
<feColorMatrix in="SourceAlpha" type="matrix" values="0 0 0 0 0 0 0 0 0 0 0 0 0 0 0 0 0 0 127 0" result="hardAlpha"/>
<feOffset dy="-3.17429"/>
<feGaussianBlur stdDeviation="2.11619"/>
<feComposite in2="hardAlpha" operator="arithmetic" k2="-1" k3="1"/>
<feColorMatrix type="matrix" values="0 0 0 0 0.975833 0 0 0 0 0.879167 0 0 0 0 1 0 0 0 0.75 0"/>
<feBlend mode="normal" in2="effect2_innerShadow_2_88" result="effect3_innerShadow_2_88"/>
</filter>
<linearGradient id="paint0_linear_2_88" x1="130.743" y1="0" x2="130.743" y2="260.73" gradientUnits="userSpaceOnUse">
<stop stop-color="#E2BDFF"/>
<stop offset="1" stop-color="#DBB0FD"/>
</linearGradient>
<linearGradient id="paint1_linear_2_88" x1="130.743" y1="0" x2="130.743" y2="260.73" gradientUnits="userSpaceOnUse">
<stop offset="0.328125" stop-color="white"/>
<stop offset="1" stop-opacity="0.1"/>
</linearGradient>
<linearGradient id="paint2_linear_2_88" x1="196.239" y1="46.3607" x2="55.7254" y2="205.887" gradientUnits="userSpaceOnUse">
<stop stop-color="#7041EE"/>
<stop offset="0.527788" stop-color="#8D41EE"/>
<stop offset="1" stop-color="#D641EE"/>
</linearGradient>
<radialGradient id="paint3_radial_2_88" cx="0" cy="0" r="1" gradientTransform="matrix(-17.2069 179.406 -266.65 -23.6657 100.769 29.8084)" gradientUnits="userSpaceOnUse">
<stop stop-color="#52B6FF"/>
<stop offset="1" stop-color="#8F41EE" stop-opacity="0"/>
</radialGradient>
<radialGradient id="paint4_radial_2_88" cx="0" cy="0" r="1" gradientTransform="matrix(30.5284 65.1413 -176.52 76.5512 100.214 70.3882)" gradientUnits="userSpaceOnUse">
<stop stop-color="#9DD6FF"/>
<stop offset="1" stop-color="#8F41EE" stop-opacity="0"/>
</radialGradient>
<radialGradient id="paint5_radial_2_88" cx="0" cy="0" r="1" gradientTransform="matrix(-89.92 72.6165 -107.93 -123.672 258.406 174.508)" gradientUnits="userSpaceOnUse">
<stop stop-color="#5263FF"/>
<stop offset="1" stop-color="#8F41EE" stop-opacity="0"/>
</radialGradient>
</defs>
</svg>
